{"accessors":[{"bufferView":0,"byteOffset":0,"componentType":5126,"count":1950,"max":[0.2,0.2,0.575],"min":[-0.2,-0.2,-0.575],"normalized":false,"type":"VEC3"},{"bufferView":1,"byteOffset":0,"componentType":5126,"count":1950,"max":[0.999969,1,0.042445,1],"min":[-0.999969,-0.999872,-0.031891,1],"normalized":false,"type":"VEC4"},{"bufferView":2,"byteOffset":0,"componentType":5126,"count":1950,"max":[1,1,1],"min":[-1,-1,-1],"normalized":false,"type":"VEC3"},{"bufferView":3,"byteOffset":0,"componentType":5126,"count":1950,"max":[1,1],"min":[0,0],"normalized":false,"type":"VEC2"},{"bufferView":4,"byteOffset":0,"componentType":5125,"count":10368,"max":[1949],"min":[0],"normalized":false,"type":"SCALAR"},{"bufferView":5,"byteOffset":0,"componentType":5126,"count":522,"max":[0.075,0.18,0.075],"min":[-0.075,-0.18,-0.075],"normalized":false,"type":"VEC3"},{"bufferView":6,"byteOffset":0,"componentType":5126,"count":522,"max":[0.999969,0,0.999969,1],"min":[-0.999969,-0.011223,-1,1],"normalized":false,"type":"VEC4"},{"bufferView":7,"byteOffset":0,"componentType":5126,"count":522,"max":[1,1,1],"min":[-1,-1,-1],"normalized":false,"type":"VEC3"},{"bufferView":8,"byteOffset":0,"componentType":5126,"count":522,"max":[1,1],"min":[0,0],"normalized":false,"type":"VEC2"},{"bufferView":9,"byteOffset":0,"componentType":5125,"count":2304,"max":[521],"min":[0],"normalized":false,"type":"SCALAR"}],"asset":{"generator":"Godot Engine v3.4.4.stable.arch_linux@unknown","version":"2.0"},"bufferViews":[{"buffer":0,"byteLength":23400,"byteOffset":0},{"buffer":0,"byteLength":31200,"byteOffset":23400},{"buffer":0,"byteLength":23400,"byteOffset":54600},{"buffer":0,"byteLength":15600,"byteOffset":78000},{"buffer":0,"byteLength":41472,"byteOffset":93600},{"buffer":0,"byteLength":6264,"byteOffset":135072},{"buffer":0,"byteLength":8352,"byteOffset":141336},{"buffer":0,"byteLength":6264,"byteOffset":149688},{"buffer":0,"byteLength":4176,"byteOffset":155952},{"buffer":0,"byteLength":9216,"byteOffset":160128}],"buffers":[{"byteLength":169344,"uri":"CharacterModel_godot_export0.bin"}],"extensionsRequired":["KHR_texture_transform"],"extensionsUsed":["KHR_lights_punctual","KHR_texture_transform"],"meshes":[{"extras":{"targetNames":[]},"primitives":[{"attributes":{"NORMAL":2,"POSITION":0,"TANGENT":1,"TEXCOORD_0":3},"indices":4,"mode":4}]},{"extras":{"targetNames":[]},"primitives":[{"attributes":{"NORMAL":7,"POSITION":5,"TANGENT":6,"TEXCOORD_0":8},"indices":9,"mode":4}]}],"nodes":[{"children":[1],"extensions":{},"mesh":0,"name":"CharacterModel","rotation":[-0.707107,0,0,0.707107],"translation":[0,0.585,0]},{"extensions":{},"mesh":1,"name":"MeshInstance","translation":[0,0.18,0.346]}],"scene":0,"scenes":[{"nodes":[0]}]}